<?xml version="1.0" encoding="UTF-8"?>
<!DOCTYPE svg PUBLIC "-//W3C//DTD SVG 1.1//EN" "http://www.w3.org/Graphics/SVG/1.1/DTD/svg11.dtd">
<!-- Creator: CorelDRAW 2021 (64-Bit) -->
<svg xmlns="http://www.w3.org/2000/svg" xml:space="preserve" width="72.2902mm" height="60.7884mm" version="1.1" style="shape-rendering:geometricPrecision; text-rendering:geometricPrecision; image-rendering:optimizeQuality; fill-rule:evenodd; clip-rule:evenodd"
viewBox="0 0 7227.96 6077.95"
 xmlns:xlink="http://www.w3.org/1999/xlink"
 xmlns:xodm="http://www.corel.com/coreldraw/odm/2003">
 <defs>
  <style type="text/css">
   <![CDATA[
    .fil0 {fill:#F5E427;fill-rule:nonzero}
   ]]>
  </style>
 </defs>
 <g id="Layer_x0020_1">
  <metadata id="CorelCorpID_0Corel-Layer"/>
  <g id="_1789546524656">
   <path class="fil0" d="M5218.87 3729.85l-4138.7 10.23c-55.7,0.14 -96.23,-40.09 -96.23,-96.38 0,-899.38 1.05,-1725.14 1.05,-2625 0,-56.23 40.1,-96.33 96.29,-96.33l1550.96 0 450.29 565.54 2136.34 0.19c56.28,0 96.48,40.57 96.48,96.38l0 2049.04c0,55.55 -40.91,96.28 -96.48,96.33zm-2578.65 1088.77l2543.17 1246.37c62.33,27.86 96.91,11.05 79.71,-53.06l-296.43 -1193.31 1096.74 0c128.5,0 248.98,-48.21 345.31,-144.59l674.64 -674.55c96.39,-96.43 144.6,-216.91 144.6,-345.41l0 -2489.57c0,-128.5 -48.21,-248.98 -144.6,-345.36l-674.64 -674.64c-96.33,-96.29 -216.81,-144.5 -345.31,-144.5l-5967.04 0c-56.18,0 -96.38,40.1 -96.38,96.38l0 4625.82c0,56.23 40.19,96.43 96.38,96.43l2543.85 0z"/>
  </g>
 </g>
</svg>
